<svg xmlns="http://www.w3.org/2000/svg" id="_图层_1" data-name="图层 1" viewBox="0 0 507 102.87">
  <defs>
    <style>
      .cls-1 {
        fill: #d7000f;
      }

      .cls-1, .cls-2 {
        fill-rule: evenodd;
      }
    </style>
  </defs>
  <g id="_纯英文横板-红标" data-name="纯英文横板-红标">
    <g>
      <path class="cls-1" d="M19.15,42.56l3.64,17.86,35.52,35.62H19.58L0,1.26l87.43,54.56L174.83,1.26l-19.58,94.78h-38.73l35.52-35.62,3.64-17.86-68.25,42.68L19.15,42.56Z"/>
      <path class="cls-1" d="M66.3,30.63l21.1-13.64,21.13,13.69-21.08,13.05-21.15-13.1Z"/>
    </g>
    <g>
      <path d="M197.15,96.37c-.17,0-.23-.09-.18-.26l9.22-22.68c0-.09.06-.13.18-.13h3.13c.1,0,.17.04.22.13l9.18,22.68c.05.17-.01.26-.18.26h-4.03c-.07,0-.13-.04-.18-.13l-1.87-4.99h-9.29c-.34.84-.66,1.67-.97,2.49-.31.82-.64,1.65-.97,2.5-.05.09-.12.13-.22.13h-4.03ZM211.33,87.85c-.02-.15-.08-.3-.18-.45-.19-.52-.37-1-.54-1.44-.17-.44-.31-.83-.43-1.15-.1-.22-.18-.42-.25-.62-.07-.19-.14-.39-.22-.58-.05-.17-.11-.33-.18-.49-.07-.15-.13-.29-.18-.42-.12-.3-.23-.61-.32-.92-.1-.31-.2-.63-.32-.96-.05-.15-.11-.31-.18-.49-.07-.17-.14-.37-.22-.58-.05-.19-.09-.33-.13-.41-.04-.08-.1-.25-.2-.53-.14.37-.27.7-.38.99-.11.29-.21.57-.31.83-.02.09-.06.19-.11.32-.05.17-.11.33-.18.49-.07.15-.13.31-.18.49-.05.17-.11.33-.18.49-.07.15-.13.3-.18.45-.12.32-.24.66-.36,1.02s-.25.72-.4,1.09c-.17.37-.33.77-.49,1.21-.16.44-.37,1-.63,1.67h6.73Z"/>
      <path d="M234.91,96.37c-.14,0-.22-.05-.22-.16v-1.2c-1.2,1.04-2.66,1.56-4.39,1.56-1.15,0-2.13-.2-2.93-.6-.8-.4-1.47-.91-2-1.54h.04c-.29-.3-.52-.63-.68-.97-.17-.35-.3-.72-.4-1.13-.19-.82-.29-2.2-.29-4.15s.1-3.29.29-4.12c.1-.39.23-.76.41-1.12.18-.36.4-.69.67-.99h-.04c.53-.63,1.19-1.14,2-1.55.8-.41,1.78-.62,2.93-.62.89,0,1.69.16,2.39.47.71.31,1.37.72,2,1.21v-7.78c0-.13.07-.2.22-.2h3.6c.14,0,.22.07.22.2v22.52c0,.11-.07.16-.22.16h-3.6ZM231.42,83.38c-1.58,0-2.54.47-2.88,1.43-.14.52-.26,1.06-.34,1.62-.08.56-.13,1.15-.13,1.75s.04,1.19.13,1.77c.08.57.2,1.12.34,1.64.34.95,1.3,1.43,2.88,1.43s2.48-.5,2.77-1.49c.19-.56.32-1.12.4-1.67.07-.55.11-1.11.11-1.67s-.04-1.12-.11-1.67c-.07-.55-.2-1.1-.4-1.64-.29-.99-1.21-1.49-2.77-1.49Z"/>
      <path d="M249.27,96.37c-.12,0-.18-.03-.18-.1l-6.52-16.07s-.05-.09,0-.15c.05-.05.11-.08.18-.08h3.78c.12,0,.18.04.18.13l4.03,10.82c.67-1.84,1.34-3.64,2.02-5.43.67-1.78,1.34-3.58,2.02-5.39.05-.09.11-.13.18-.13h3.82c.07,0,.13.03.18.08.05.05.05.1,0,.15l-6.52,16.07c-.05.07-.12.1-.22.1h-2.95Z"/>
      <path d="M277.53,89.4c0,.13-.07.19-.22.19h-10.87c.05,1.19.42,2.06,1.12,2.62.72.63,1.69.94,2.92.94,1.42,0,2.68-.5,3.78-1.49.07-.06.17-.06.29,0l2.59,2.01c.1.04.1.13,0,.26-.91.95-1.93,1.62-3.06,2.03-1.13.4-2.3.6-3.53.6-1.92,0-3.73-.54-5.44-1.62-1.78-1.1-2.66-3.34-2.66-6.71,0-3.17.82-5.38,2.45-6.61,1.61-1.23,3.31-1.85,5.11-1.85,1.99,0,3.74.63,5.26,1.88,1.51,1.27,2.27,2.97,2.27,5.09v2.66ZM273.54,86.55c-.1-1.1-.46-1.93-1.1-2.5-.64-.56-1.45-.84-2.43-.84-1.03,0-1.87.29-2.52.88-.62.56-.97,1.38-1.04,2.46h7.09Z"/>
      <path d="M283.87,96.37c-.14,0-.22-.05-.22-.16v-16.04c0-.13.07-.19.22-.19h3.6c.14,0,.22.06.22.19v1.3c1.1-1.12,2.6-1.68,4.5-1.68,1.39,0,2.77.49,4.14,1.46,1.34.97,2.02,2.41,2.02,4.31v10.66c0,.11-.07.16-.22.16h-3.6c-.14,0-.22-.05-.22-.16v-9.56c0-1.06-.3-1.87-.9-2.43-.67-.56-1.46-.84-2.38-.84-.98,0-1.79.28-2.41.84-.62.61-.94,1.42-.94,2.43v9.56c0,.11-.07.16-.22.16h-3.6Z"/>
      <path d="M305.72,96.4c-.14,0-.22-.06-.22-.19v-13.38h-1.58c-.14,0-.22-.06-.22-.2v-2.46c0-.13.07-.19.22-.19h1.58v-2.43l3.64-3.47c.07-.06.15-.09.23-.06.08.02.13.08.13.16v5.8h2.41c.12,0,.18.06.18.19v2.46c0,.13-.06.2-.18.2h-2.41v13.38c0,.13-.07.19-.22.19h-3.56Z"/>
      <path d="M317.67,80.17c0-.13.07-.19.22-.19h3.6c.14,0,.22.06.22.19v9.56c0,1.06.31,1.87.94,2.43.62.56,1.43.84,2.41.84.91,0,1.7-.28,2.38-.84.6-.54.9-1.35.9-2.43v-9.56c0-.13.07-.19.22-.19h3.6c.14,0,.22.06.22.19v16.04c0,.11-.07.16-.22.16h-3.6c-.14,0-.22-.05-.22-.16v-1.26c-1.1,1.08-2.59,1.62-4.46,1.62-1.46,0-2.86-.49-4.18-1.46-1.34-.97-2.02-2.4-2.02-4.28v-10.66Z"/>
      <path d="M339.56,96.37c-.14,0-.22-.05-.22-.16v-16.04c0-.13.07-.19.22-.19h3.6c.12,0,.18.06.18.19v1.3c1.15-1.12,2.65-1.68,4.5-1.68,1.37,0,2.65.42,3.85,1.26.12.07.13.16.04.29l-2.59,2.79c-.07.11-.16.12-.25.03-.77-.52-1.52-.78-2.27-.78-.84,0-1.6.26-2.27.78-.67.5-1.01,1.3-1.01,2.4v9.66c0,.11-.06.16-.18.16h-3.6Z"/>
      <path d="M369.84,89.4c0,.13-.07.19-.22.19h-10.87c.05,1.19.42,2.06,1.12,2.62.72.63,1.69.94,2.92.94,1.42,0,2.68-.5,3.78-1.49.07-.06.17-.06.29,0l2.59,2.01c.1.04.1.13,0,.26-.91.95-1.93,1.62-3.06,2.03-1.13.4-2.3.6-3.53.6-1.92,0-3.73-.54-5.44-1.62-1.78-1.1-2.66-3.34-2.66-6.71,0-3.17.82-5.38,2.45-6.61,1.61-1.23,3.31-1.85,5.11-1.85,1.99,0,3.74.63,5.26,1.88,1.51,1.27,2.27,2.97,2.27,5.09v2.66ZM365.84,86.55c-.1-1.1-.46-1.93-1.1-2.5-.64-.56-1.45-.84-2.43-.84-1.03,0-1.87.29-2.52.88-.62.56-.97,1.38-1.04,2.46h7.09Z"/>
      <path d="M387.47,96.37c-.14,0-.22-.05-.22-.16v-22.68c0-.13.07-.2.22-.2h9.79c2.42,0,4.32.6,5.69,1.78,1.32,1.19,1.98,2.69,1.98,4.5,0,.99-.26,1.92-.79,2.79-.46.78-1.33,1.47-2.63,2.07,1.22.37,2.14,1.02,2.74,1.94.34.54.6,1.09.79,1.64.19.55.29,1.12.29,1.7,0,2.03-.72,3.64-2.16,4.83-1.42,1.19-3.1,1.78-5.04,1.78h-10.66ZM391.51,76.77v6.12h5.33c1.3,0,2.26-.29,2.88-.88.65-.58.97-1.31.97-2.17s-.32-1.59-.97-2.17c-.6-.6-1.56-.91-2.88-.91h-5.33ZM391.51,86.33v6.45h5.69c1.32,0,2.3-.32,2.95-.97.62-.67.94-1.41.94-2.24s-.31-1.6-.94-2.27c-.62-.65-1.61-.97-2.95-.97h-5.69Z"/>
      <path d="M425.38,89.4c0,.13-.07.19-.22.19h-10.87c.05,1.19.42,2.06,1.12,2.62.72.63,1.69.94,2.92.94,1.42,0,2.68-.5,3.78-1.49.07-.06.17-.06.29,0l2.59,2.01c.1.04.1.13,0,.26-.91.95-1.93,1.62-3.06,2.03-1.13.4-2.3.6-3.53.6-1.92,0-3.73-.54-5.44-1.62-1.78-1.1-2.66-3.34-2.66-6.71,0-3.17.82-5.38,2.45-6.61,1.61-1.23,3.31-1.85,5.11-1.85,1.99,0,3.74.63,5.26,1.88,1.51,1.27,2.27,2.97,2.27,5.09v2.66ZM421.39,86.55c-.1-1.1-.46-1.93-1.1-2.5-.64-.56-1.45-.84-2.43-.84-1.03,0-1.87.29-2.52.88-.62.56-.97,1.38-1.04,2.46h7.09Z"/>
      <path d="M435.32,95.59c-1.06-2.57-2.11-5.14-3.17-7.7s-2.11-5.12-3.17-7.7c-.05-.04-.05-.09,0-.15.05-.05.11-.08.18-.08h3.78c.07,0,.13.04.18.13l4.07,10.82c.7-1.84,1.37-3.64,2.03-5.43.66-1.78,1.34-3.58,2.03-5.39,0-.09.06-.13.18-.13h3.82c.07,0,.13.03.18.08.05.05.05.1,0,.15l-7.67,19.38c-.5,1.3-1.22,2.17-2.16,2.62v-.03c-.89.47-1.91.71-3.06.71h-1.19c-.14,0-.22-.06-.22-.19v-3.05c0-.13.07-.19.22-.19h1.04c.98,0,1.64-.42,1.98-1.26l.94-2.59Z"/>
      <path d="M448.96,88.17c0-1.77.16-3.08.47-3.92.34-.91.84-1.7,1.51-2.37.5-.47,1.2-.94,2.09-1.39.89-.48,2.05-.71,3.49-.71s2.57.24,3.46.71c.48.24.89.47,1.22.7.34.23.64.46.9.7.7.71,1.2,1.5,1.51,2.37.14.43.26.97.34,1.62.08.65.13,1.42.13,2.3s-.04,1.66-.13,2.32c-.08.66-.2,1.21-.34,1.64-.34.89-.84,1.66-1.51,2.33-.26.28-.58.54-.94.76-.36.23-.76.46-1.19.7-.82.43-1.97.65-3.46.65s-2.63-.22-3.49-.65c-.41-.22-.79-.45-1.15-.71-.36-.26-.67-.51-.94-.75-.7-.67-1.2-1.45-1.51-2.33-.31-.84-.47-2.16-.47-3.95ZM460.08,88.21c0-1.12-.07-1.93-.22-2.43-.1-.43-.31-.86-.65-1.3-.6-.73-1.5-1.1-2.7-1.1-1.27,0-2.17.37-2.7,1.1-.17.22-.31.43-.43.63-.12.21-.2.43-.25.66-.05.24-.09.56-.13.96-.04.4-.05.88-.05,1.44,0,1.08.06,1.89.18,2.43.1.45.32.89.68,1.3.53.73,1.43,1.1,2.7,1.1,1.2,0,2.1-.37,2.7-1.1.31-.39.53-.82.65-1.3.14-.47.22-1.27.22-2.4Z"/>
      <path d="M470.38,96.37c-.14,0-.22-.05-.22-.16v-16.04c0-.13.07-.19.22-.19h3.6c.14,0,.22.06.22.19v1.3c1.1-1.12,2.6-1.68,4.5-1.68,1.39,0,2.77.49,4.14,1.46,1.34.97,2.02,2.41,2.02,4.31v10.66c0,.11-.07.16-.22.16h-3.6c-.14,0-.22-.05-.22-.16v-9.56c0-1.06-.3-1.87-.9-2.43-.67-.56-1.46-.84-2.38-.84-.98,0-1.79.28-2.41.84-.62.61-.94,1.42-.94,2.43v9.56c0,.11-.07.16-.22.16h-3.6Z"/>
      <path d="M502.71,96.37c-.14,0-.22-.05-.22-.16v-1.2c-1.2,1.04-2.66,1.56-4.39,1.56-1.15,0-2.13-.2-2.93-.6-.8-.4-1.47-.91-2-1.54h.04c-.29-.3-.52-.63-.68-.97-.17-.35-.3-.72-.4-1.13-.19-.82-.29-2.2-.29-4.15s.1-3.29.29-4.12c.1-.39.23-.76.41-1.12.18-.36.4-.69.67-.99h-.04c.53-.63,1.19-1.14,2-1.55.8-.41,1.78-.62,2.93-.62.89,0,1.69.16,2.39.47.71.31,1.37.72,2,1.21v-7.78c0-.13.07-.2.22-.2h3.6c.14,0,.22.07.22.2v22.52c0,.11-.07.16-.22.16h-3.6ZM499.22,83.38c-1.58,0-2.54.47-2.88,1.43-.14.52-.26,1.06-.34,1.62-.08.56-.13,1.15-.13,1.75s.04,1.19.13,1.77c.08.57.2,1.12.34,1.64.34.95,1.3,1.43,2.88,1.43s2.48-.5,2.77-1.49c.19-.56.32-1.12.4-1.67.07-.55.11-1.11.11-1.67s-.04-1.12-.11-1.67c-.07-.55-.2-1.1-.4-1.64-.29-.99-1.21-1.49-2.77-1.49Z"/>
    </g>
    <g>
      <g>
        <polygon class="cls-2" points="267.19 13.35 285.27 13.35 285.27 51.05 299 38.71 299 13.35 316.42 13.35 316.42 1.33 267.19 1.33 267.19 13.35"/>
        <polygon class="cls-2" points="493.28 1.31 493.28 30.24 471.83 1.33 458.1 1.33 458.1 51.05 471.83 51.05 471.83 21.69 493.27 51.05 507 51.05 507 1.31 493.28 1.31"/>
        <path class="cls-2" d="M378.33,18.02c0-10.62-8.48-16.68-17.57-16.68h-31.33l10.05,12.01h20.22c2.63,0,4.9,2.01,4.9,4.67,0,3.36-2.66,4.67-4.78,4.67h-17.32l-13.06,11.68v16.68h13.73v-16.35h12.73l10.05,16.35h13.73l-11.39-18.02s10.05-3.26,10.05-15.02Z"/>
        <path class="cls-2" d="M418.68,0c-23.25,0-27.13,18.44-27.13,26.36,0,6.42,3.1,26.03,26.79,26.03,15.66,0,26.12-10.31,26.12-26.69,0-14.38-9.69-25.69-25.79-25.69ZM418.05,40.49c-11.43,0-12.93-10.7-12.93-14.2,0-4.32,1.87-14.39,13.09-14.39,7.77,0,12.44,6.17,12.44,14.02,0,8.94-5.05,14.57-12.6,14.57Z"/>
      </g>
      <polygon class="cls-2" points="213.36 1.33 224.58 21.86 235.8 1.33 252.22 1.33 252.22 51.05 238.48 51.05 238.48 21.52 224.42 46.38 210.72 21.57 210.68 51.05 196.95 51.05 196.95 1.33 213.36 1.33"/>
    </g>
  </g>
</svg>