<svg xmlns="http://www.w3.org/2000/svg" id="_图层_1" data-name="图层_1" version="1.1" viewBox="816.23 412.89 175.17 134.1">
  <!-- Generator: Adobe Illustrator 30.1.0, SVG Export Plug-In . SVG Version: 2.1.1 Build 136)  -->
  <defs>
    <style>
      .st0 {
        fill: #d7000f;
      }

      .st0, .st1 {
        fill-rule: evenodd;
      }
    </style>
  </defs>
  <g id="_纯英文竖版-红标" data-name="纯英文竖版-红标">
    <g>
      <polygon class="st1" points="855.46 524.86 865.71 524.86 865.71 546.24 873.49 539.24 873.49 524.86 883.37 524.86 883.37 518.05 855.46 518.05 855.46 524.86"/>
      <polygon class="st1" points="983.63 518.04 983.63 534.44 971.47 518.05 963.68 518.05 963.68 546.24 971.47 546.24 971.47 529.59 983.62 546.24 991.4 546.24 991.4 518.04 983.63 518.04"/>
      <path class="st1" d="M918.46,527.51c0-6.02-4.81-9.46-9.96-9.46h-17.76l5.7,6.81h11.46c1.49,0,2.78,1.14,2.78,2.65,0,1.9-1.51,2.65-2.71,2.65h-9.82l-7.4,6.62v9.46h7.78v-9.27h7.22l5.7,9.27h7.78l-6.46-10.22s5.7-1.85,5.7-8.51Z"/>
      <path class="st1" d="M941.34,517.29c-13.18,0-15.38,10.45-15.38,14.94,0,3.64,1.76,14.76,15.19,14.76,8.88,0,14.81-5.85,14.81-15.13,0-8.15-5.49-14.57-14.62-14.57ZM940.98,540.25c-6.48,0-7.33-6.07-7.33-8.05,0-2.45,1.06-8.16,7.42-8.16,4.4,0,7.05,3.5,7.05,7.95,0,5.07-2.86,8.26-7.14,8.26Z"/>
      <polygon class="st1" points="825.51 518.02 831.85 529.63 838.19 518.02 847.47 518.02 847.47 546.13 839.71 546.13 839.71 529.44 831.75 543.49 824.01 529.46 823.99 546.13 816.23 546.13 816.23 518.02 825.51 518.02"/>
    </g>
    <polygon class="st0" points="874.98 506.5 839.76 471.32 836.16 453.67 903.85 495.83 971.52 453.67 967.91 471.32 932.69 506.5 971.09 506.5 990.5 412.89 903.86 466.77 817.17 412.89 836.58 506.5 874.98 506.5"/>
    <polygon class="st0" points="924.77 441.95 903.82 428.42 882.9 441.89 903.87 454.83 924.77 441.95"/>
  </g>
</svg>