<svg xmlns="http://www.w3.org/2000/svg" id="_图层_1" data-name="图层 1" viewBox="0 342.2 642.63 55.26">
  <defs>
    <style>
      .cls-1, .cls-2 {
        fill: #ff3b30;
      }

      .cls-2 {
        fill-rule: evenodd;
      }
    </style>
  </defs>
  <g id="_商标无slogan" data-name="商标无slogan">
    <g>
      <polygon class="cls-2" points="73.9 356.26 92.94 356.26 92.94 395.96 107.4 382.96 107.4 356.26 125.73 356.26 125.73 343.61 73.9 343.61 73.9 356.26"/>
      <polygon class="cls-2" points="311.94 343.58 311.94 374.05 289.36 343.61 274.9 343.61 274.9 395.96 289.36 395.96 289.36 365.04 311.93 395.96 326.38 395.96 326.38 343.58 311.94 343.58"/>
      <path class="cls-2" d="M190.91,361.18c0-11.18-8.93-17.57-18.5-17.57h-32.99l10.58,12.65h21.29c2.77,0,5.16,2.12,5.16,4.92,0,3.54-2.8,4.92-5.04,4.92h-18.24l-13.75,12.3v17.57h14.46v-17.21h13.4l10.58,17.21h14.46l-11.99-18.97s10.58-3.43,10.58-15.81Z"/>
      <path class="cls-2" d="M233.4,342.21c-24.47,0-28.56,19.41-28.56,27.75,0,6.76,3.26,27.4,28.21,27.4,16.49,0,27.51-10.86,27.51-28.11,0-15.14-10.2-27.05-27.15-27.05ZM232.73,384.83c-12.04,0-13.61-11.26-13.61-14.95,0-4.55,1.97-15.15,13.78-15.15,8.18,0,13.1,6.5,13.1,14.76,0,9.41-5.32,15.34-13.27,15.34Z"/>
    </g>
    <polygon class="cls-2" points="17.28 343.61 29.09 365.22 40.91 343.61 58.19 343.61 58.19 395.96 43.73 395.96 43.73 364.86 28.92 391.04 14.5 364.91 14.46 395.96 0 395.96 0 343.61 17.28 343.61"/>
    <g>
      <path class="cls-1" d="M377.49,343.67v19.91h22.6v-19.91h14.62v52.59h-14.62v-19.91h-22.6v19.91h-14.63v-52.59h14.63Z"/>
      <path class="cls-1" d="M466.38,343.67l20.88,52.59h-15.62l-4.92-12.4h-20.81l-4.92,12.4h-15.62l20.88-52.59h20.14ZM461.66,371.09l-5.32-13.45-5.39,13.45h10.7Z"/>
      <path class="cls-1" d="M493.77,369.96v-26.3h14.63v26.3c0,9.39,4.12,14.73,11.3,14.73s11.3-5.33,11.3-14.73v-26.3h14.62v26.3c0,17.51-9.44,27.5-25.93,27.5s-25.93-9.99-25.93-27.5Z"/>
      <path class="cls-1" d="M559.26,343.67h14.63v39.82h32.58v12.77h-47.2v-52.59Z"/>
    </g>
    <path class="cls-1" d="M618.63,356.67c0-2.28.53-4.39,1.58-6.34s2.51-3.49,4.38-4.61c1.87-1.12,3.88-1.68,6.05-1.68s4.18.56,6.04,1.68c1.86,1.12,3.32,2.66,4.37,4.61s1.58,4.07,1.58,6.34-.51,4.3-1.52,6.24c-1.02,1.94-2.46,3.5-4.32,4.68-1.87,1.18-3.92,1.77-6.15,1.77s-4.27-.58-6.13-1.75c-1.87-1.17-3.31-2.72-4.34-4.66-1.03-1.94-1.54-4.03-1.54-6.28ZM620.58,356.66c0,1.94.45,3.73,1.35,5.38.9,1.65,2.13,2.94,3.68,3.88,1.55.94,3.23,1.4,5.03,1.4s3.5-.48,5.06-1.43c1.56-.95,2.78-2.25,3.66-3.88.88-1.63,1.33-3.42,1.33-5.36s-.44-3.71-1.33-5.33c-.89-1.63-2.11-2.91-3.66-3.85-1.56-.94-3.24-1.41-5.06-1.41s-3.49.46-5.04,1.39c-1.56.93-2.78,2.22-3.68,3.86-.9,1.65-1.34,3.43-1.34,5.34ZM628.15,357.94v5.72h-2.38v-14.36h4.67c1.73,0,3.06.37,4.02,1.11.95.74,1.43,1.81,1.43,3.22s-.72,2.45-2.17,3.18c1.38.56,2.07,1.71,2.08,3.45v1.03c0,.97.1,1.67.29,2.1v.27h-2.45c-.16-.41-.24-1.13-.24-2.17s-.02-1.66-.05-1.85c-.18-1.08-.92-1.65-2.22-1.69h-2.98ZM628.15,355.77h2.64c.81-.02,1.47-.22,1.96-.59.5-.37.74-.86.74-1.47,0-.82-.22-1.4-.66-1.74-.44-.34-1.22-.51-2.35-.51h-2.33v4.31Z"/>
  </g>
</svg>