<svg xmlns="http://www.w3.org/2000/svg" id="_图层_1" data-name="图层_1" version="1.1" viewBox="387.13 869.18 644.33 107.52">
  <!-- Generator: Adobe Illustrator 30.1.0, SVG Export Plug-In . SVG Version: 2.1.1 Build 136)  -->
  <defs>
    <style>
      .st0 {
        fill-rule: evenodd;
      }

      .st0, .st1 {
        fill: #d7000f;
      }
    </style>
  </defs>
  <g id="_商标有slogan" data-name="商标有slogan">
    <g>
      <polygon class="st0" points="462.73 883.24 481.77 883.24 481.77 922.94 496.23 909.94 496.23 883.24 514.56 883.24 514.56 870.6 462.73 870.6 462.73 883.24"/>
      <polygon class="st0" points="700.77 870.57 700.77 901.03 678.19 870.6 663.73 870.6 663.73 922.94 678.19 922.94 678.19 892.03 700.76 922.94 715.22 922.94 715.22 870.57 700.77 870.57"/>
      <path class="st0" d="M579.74,888.16c0-11.18-8.93-17.57-18.5-17.57h-32.99l10.58,12.65h21.29c2.77,0,5.16,2.12,5.16,4.92,0,3.54-2.8,4.92-5.04,4.92h-18.24l-13.75,12.3v17.57h14.46v-17.21h13.4l10.58,17.21h14.46l-11.99-18.97s10.58-3.43,10.58-15.81Z"/>
      <path class="st0" d="M622.23,869.19c-24.47,0-28.56,19.41-28.56,27.75,0,6.76,3.26,27.4,28.21,27.4,16.49,0,27.51-10.86,27.51-28.11,0-15.14-10.2-27.05-27.15-27.05ZM621.56,911.82c-12.04,0-13.61-11.26-13.61-14.95,0-4.55,1.97-15.15,13.78-15.15,8.18,0,13.1,6.5,13.1,14.76,0,9.41-5.32,15.34-13.27,15.34Z"/>
    </g>
    <polygon class="st0" points="406.11 870.6 417.92 892.2 429.74 870.6 447.02 870.6 447.02 922.94 432.56 922.94 432.56 891.85 417.75 918.02 403.33 891.9 403.29 922.94 388.83 922.94 388.83 870.6 406.11 870.6"/>
    <g>
      <path class="st1" d="M766.32,870.65v19.91h22.6v-19.91h14.62v52.59h-14.62v-19.91h-22.6v19.91h-14.63v-52.59h14.63Z"/>
      <path class="st1" d="M855.21,870.65l20.88,52.59h-15.62l-4.92-12.4h-20.81l-4.92,12.4h-15.62l20.88-52.59h20.14ZM850.49,898.07l-5.32-13.45-5.39,13.45h10.7Z"/>
      <path class="st1" d="M882.61,896.95v-26.3h14.63v26.3c0,9.39,4.12,14.73,11.3,14.73s11.3-5.33,11.3-14.73v-26.3h14.62v26.3c0,17.51-9.44,27.5-25.93,27.5s-25.93-9.99-25.93-27.5Z"/>
      <path class="st1" d="M948.09,870.65h14.63v39.82h32.58v12.77h-47.2v-52.59Z"/>
    </g>
    <path class="st1" d="M1007.46,883.66c0-2.28.53-4.39,1.58-6.34s2.51-3.49,4.38-4.61c1.87-1.12,3.88-1.68,6.05-1.68s4.18.56,6.04,1.68c1.86,1.12,3.32,2.66,4.37,4.61s1.58,4.07,1.58,6.34-.51,4.3-1.52,6.24c-1.02,1.94-2.46,3.5-4.32,4.68-1.87,1.18-3.92,1.77-6.15,1.77s-4.27-.58-6.13-1.75c-1.87-1.17-3.31-2.72-4.34-4.66-1.03-1.94-1.54-4.03-1.54-6.28ZM1009.41,883.65c0,1.94.45,3.73,1.35,5.38.9,1.65,2.13,2.94,3.68,3.88,1.55.94,3.23,1.4,5.03,1.4s3.5-.48,5.06-1.43c1.56-.95,2.78-2.25,3.66-3.88.88-1.63,1.33-3.42,1.33-5.36s-.44-3.71-1.33-5.33c-.89-1.63-2.11-2.91-3.66-3.85-1.56-.94-3.24-1.41-5.06-1.41s-3.49.46-5.04,1.39c-1.56.93-2.78,2.22-3.68,3.86-.9,1.65-1.34,3.43-1.34,5.34ZM1016.99,884.93v5.72h-2.38v-14.36h4.67c1.73,0,3.06.37,4.02,1.11.95.74,1.43,1.81,1.43,3.22s-.72,2.45-2.17,3.18c1.38.56,2.07,1.71,2.08,3.45v1.03c0,.97.1,1.67.29,2.1v.27h-2.45c-.16-.41-.24-1.13-.24-2.17s-.02-1.66-.05-1.85c-.18-1.08-.92-1.65-2.22-1.69h-2.98ZM1016.99,882.76h2.64c.81-.02,1.47-.22,1.96-.59.5-.37.74-.86.74-1.47,0-.82-.22-1.4-.66-1.74-.44-.34-1.22-.51-2.35-.51h-2.33v4.31Z"/>
    <g>
      <path class="st1" d="M390.04,961.37c.05-.13.16-.14.32-.04,1.01.85,2.17,1.52,3.49,2,1.32.49,2.73.74,4.21.74,1.64,0,2.95-.34,3.93-1.03.9-.64,1.35-1.51,1.35-2.62,0-2.04-1.14-3.21-3.41-3.53-.64-.05-1.23-.12-1.79-.2-.56-.08-1.19-.17-1.91-.28-2.49-.32-4.37-1.22-5.64-2.7-1.3-1.53-1.95-3.32-1.95-5.36,0-2.46.82-4.46,2.46-6,1.64-1.56,3.92-2.34,6.83-2.34,1.75,0,3.39.28,4.92.83,1.53.56,2.95,1.26,4.25,2.1.11.08.12.19.04.32l-2.34,3.49c-.11.11-.21.12-.32.04-1.01-.64-2.08-1.14-3.22-1.53-1.14-.38-2.32-.58-3.53-.58s-2.32.32-3.14.95c-.85.61-1.27,1.54-1.27,2.78,0,.77.29,1.46.87,2.06.58.66,1.55,1.09,2.9,1.27.37.08.81.15,1.31.22.5.07,1.1.14,1.79.22,2.65.32,4.61,1.3,5.88,2.94,1.3,1.56,1.94,3.32,1.94,5.28,0,2.65-.91,4.7-2.74,6.15-1.83,1.43-4.25,2.14-7.27,2.14-4.26,0-7.85-1.28-10.76-3.85-.13-.08-.15-.2-.04-.36l2.82-3.14Z"/>
      <path class="st1" d="M413.59,968.47c-.16,0-.24-.07-.24-.2v-19.65c0-.16.08-.24.24-.24h3.97c.16,0,.24.08.24.24v1.55c1.22-1.35,2.87-2.02,4.96-2.02,1.35,0,2.47.26,3.37.79.37.24.74.5,1.11.77.37.28.71.58,1.03.89,1.59-1.64,3.67-2.46,6.23-2.46,1.56,0,3.08.6,4.57,1.79,1.46,1.19,2.18,2.95,2.18,5.28v13.06c0,.13-.07.2-.2.2h-3.97c-.16,0-.24-.07-.24-.2v-11.71c0-1.24-.34-2.24-1.03-2.98-.69-.69-1.56-1.03-2.62-1.03s-1.97.34-2.66,1.03c-.69.74-1.03,1.73-1.03,2.98v11.71c0,.13-.07.2-.2.2h-3.97c-.13,0-.2-.07-.2-.2v-11.71c0-1.22-.36-2.21-1.07-2.98-.69-.69-1.56-1.03-2.62-1.03s-1.97.34-2.66,1.03c-.66.69-.99,1.68-.99,2.98v11.71c0,.13-.08.2-.24.2h-3.97Z"/>
      <path class="st1" d="M458.53,968.55c-.16,0-.24-.07-.24-.2v-1.11c-.34.48-.81.82-1.39,1.03-.4.16-.87.28-1.41.38s-1.13.14-1.77.14c-2.2-.03-3.89-.63-5.08-1.83v.04c-1.27-1.14-1.91-2.62-1.91-4.45,0-1.69.54-3.12,1.63-4.29,1.11-1.14,2.71-1.73,4.8-1.79h5.12v-1.83c0-1.61-1.23-2.38-3.69-2.3-.93,0-1.67.09-2.22.28h.04c-.56.26-.97.63-1.23,1.11-.08.16-.2.19-.36.08l-3.02-2.38c-.13-.11-.15-.21-.04-.32,1.51-2.04,3.72-3.02,6.63-2.94,2.41-.03,4.37.45,5.88,1.43,1.48,1.03,2.25,2.78,2.3,5.24v13.5c0,.13-.08.2-.24.2h-3.81ZM458.29,960.21h-4.41c-2.06.05-3.1.77-3.1,2.14,0,.58.26,1.1.79,1.55.5.48,1.38.71,2.62.71,1.59.03,2.69-.16,3.29-.56h-.04c.56-.34.83-1.22.83-2.62v-1.23Z"/>
      <path class="st1" d="M468.13,968.47c-.16,0-.24-.07-.24-.2v-19.65c0-.16.08-.24.24-.24h3.97c.13,0,.2.08.2.24v1.59c1.27-1.38,2.92-2.06,4.96-2.06,1.51,0,2.92.52,4.25,1.55.13.08.15.2.04.36l-2.86,3.41c-.08.13-.17.15-.28.04-.85-.64-1.68-.95-2.5-.95-.93,0-1.76.32-2.5.95-.74.61-1.11,1.59-1.11,2.94v11.83c0,.13-.07.2-.2.2h-3.97Z"/>
      <path class="st1" d="M484.77,968.51c-.16,0-.24-.08-.24-.24v-16.4h-1.75c-.16,0-.24-.08-.24-.24v-3.02c0-.16.08-.24.24-.24h1.75v-2.98l4.01-4.25c.08-.08.17-.11.26-.08.09.03.14.09.14.2v7.11h2.66c.13,0,.2.08.2.24v3.02c0,.16-.07.24-.2.24h-2.66v16.4c0,.16-.08.24-.24.24h-3.93Z"/>
      <path class="st1" d="M511.96,959.94c0,.16-.08.24-.24.24h-11.99c.05,1.46.46,2.53,1.23,3.21.79.77,1.87,1.15,3.22,1.15,1.56,0,2.95-.61,4.17-1.83.08-.08.19-.08.32,0l2.86,2.46c.11.05.11.16,0,.32-1.01,1.17-2.13,1.99-3.37,2.48-1.24.49-2.54.73-3.89.73-2.12,0-4.12-.66-5.99-1.99-1.96-1.35-2.94-4.09-2.94-8.22,0-3.89.9-6.59,2.7-8.1,1.77-1.51,3.65-2.26,5.64-2.26,2.2,0,4.13.77,5.8,2.3,1.67,1.56,2.5,3.64,2.5,6.23v3.26ZM507.56,956.44c-.11-1.35-.51-2.37-1.21-3.06-.7-.69-1.59-1.03-2.68-1.03-1.14,0-2.06.36-2.78,1.07-.69.69-1.07,1.69-1.15,3.02h7.82Z"/>
      <path class="st1" d="M517.36,968.47c-.16,0-.24-.07-.24-.2v-19.65c0-.16.08-.24.24-.24h3.97c.13,0,.2.08.2.24v1.59c1.27-1.38,2.92-2.06,4.96-2.06,1.51,0,2.92.52,4.25,1.55.13.08.15.2.04.36l-2.86,3.41c-.08.13-.17.15-.28.04-.85-.64-1.68-.95-2.5-.95-.93,0-1.76.32-2.5.95-.74.61-1.11,1.59-1.11,2.94v11.83c0,.13-.07.2-.2.2h-3.97Z"/>
      <path class="st1" d="M549.4,968.47c-.16,0-.24-.07-.24-.2v-23.82h-7.38c-.16,0-.24-.08-.24-.24v-3.73c0-.16.08-.24.24-.24h19.41c.16,0,.24.08.24.24v3.73c0,.16-.08.24-.24.24h-7.34v23.82c0,.13-.08.2-.24.2h-4.21Z"/>
      <path class="st1" d="M563.97,958.43c0-2.17.17-3.77.52-4.8.37-1.11.93-2.08,1.67-2.9.56-.58,1.32-1.15,2.3-1.71.98-.58,2.26-.87,3.85-.87s2.83.29,3.81.87c.53.29.98.58,1.35.85.37.28.7.56.99.85.77.87,1.32,1.84,1.67,2.9.16.53.28,1.19.38,1.98.09.79.14,1.73.14,2.82s-.05,2.03-.14,2.84-.22,1.48-.38,2c-.37,1.09-.93,2.04-1.67,2.86-.29.34-.64.66-1.03.93-.4.28-.83.56-1.31.85-.9.53-2.17.79-3.81.79s-2.9-.26-3.85-.79c-.45-.26-.87-.56-1.27-.87-.4-.32-.74-.62-1.03-.91-.77-.82-1.32-1.77-1.67-2.86-.34-1.03-.52-2.65-.52-4.84ZM576.24,958.47c0-1.38-.08-2.37-.24-2.98-.11-.53-.34-1.06-.71-1.59-.66-.9-1.65-1.35-2.98-1.35-1.4,0-2.4.45-2.98,1.35-.19.27-.34.52-.48.77-.13.25-.23.52-.28.81-.05.29-.1.68-.14,1.17-.04.49-.06,1.08-.06,1.77,0,1.32.07,2.32.2,2.98.11.56.36,1.08.75,1.59.58.9,1.57,1.35,2.98,1.35,1.32,0,2.32-.45,2.98-1.35.34-.48.58-1.01.71-1.59.16-.58.24-1.56.24-2.94Z"/>
      <path class="st1" d="M601.64,968.47c-.13,0-.2-.05-.2-.16l-3.93-13.1-3.93,13.1c-.03.11-.11.16-.24.16h-3.45c-.13,0-.21-.04-.24-.12l-6.27-19.69c-.05-.05-.05-.11,0-.18.05-.07.12-.1.2-.1h4.17c.16,0,.24.05.24.16l3.61,13.14c.69-2.2,1.39-4.39,2.1-6.57.71-2.18,1.43-4.37,2.14-6.57,0-.11.07-.16.2-.16h2.9c.13,0,.2.05.2.16l4.25,13.18c.61-2.22,1.21-4.43,1.81-6.61s1.2-4.37,1.81-6.57c.05-.11.13-.16.24-.16h4.17c.08,0,.15.03.2.1.05.07.05.13,0,.18l-6.27,19.69c0,.08-.07.12-.2.12h-3.49Z"/>
      <path class="st1" d="M615.74,944.85c-.16,0-.24-.08-.24-.24v-3.93c0-.16.08-.24.24-.24h3.93c.16,0,.24.08.24.24v3.93c0,.16-.08.24-.24.24h-3.93ZM615.74,968.47c-.16,0-.24-.07-.24-.2v-19.65c0-.16.08-.24.24-.24h3.93c.16,0,.24.08.24.24v19.65c0,.13-.08.2-.24.2h-3.93Z"/>
      <path class="st1" d="M626.18,968.47c-.16,0-.24-.07-.24-.2v-19.65c0-.16.08-.24.24-.24h3.97c.16,0,.24.08.24.24v1.59c1.22-1.38,2.87-2.06,4.96-2.06,1.53,0,3.06.6,4.57,1.79,1.48,1.19,2.22,2.95,2.22,5.28v13.06c0,.13-.08.2-.24.2h-3.97c-.16,0-.24-.07-.24-.2v-11.71c0-1.3-.33-2.29-.99-2.98-.74-.69-1.61-1.03-2.62-1.03-1.09,0-1.97.34-2.66,1.03-.69.74-1.03,1.73-1.03,2.98v11.71c0,.13-.08.2-.24.2h-3.97Z"/>
      <path class="st1" d="M659.33,966.81c-1.35,1.27-2.96,1.91-4.84,1.91-1.38,0-2.5-.26-3.37-.79-.42-.26-.81-.54-1.17-.81-.36-.28-.64-.56-.85-.85-.29-.37-.54-.76-.73-1.17-.2-.41-.35-.83-.46-1.25-.13-.4-.22-1.05-.26-1.95-.04-.9-.06-2.04-.06-3.42s.02-2.55.06-3.43c.04-.89.12-1.54.26-1.96.21-.87.61-1.68,1.19-2.42.45-.58,1.12-1.14,2.02-1.67.9-.56,2.02-.83,3.37-.83,1.8,0,3.41.67,4.84,2.02v-1.55c0-.16.07-.24.2-.24h3.97c.16,0,.24.08.24.24v19.17c0,3.02-.89,5.25-2.66,6.71-1.83,1.46-3.86,2.18-6.11,2.18-1.3,0-2.55-.32-3.77-.95-1.3-.63-2.37-1.44-3.22-2.42-.11-.16-.09-.27.04-.32l3.06-2.46c.08-.05.17-.05.28,0,.48.48,1.03.88,1.67,1.21.64.33,1.31.5,2.02.5,1.3,0,2.33-.34,3.1-1.03.79-.66,1.19-1.65,1.19-2.98v-1.43ZM651.98,958.47c0,1.56.04,2.59.12,3.1.08.5.28.95.6,1.35.26.32.64.63,1.11.95.48.32,1.1.48,1.87.48.71,0,1.32-.16,1.81-.48s.87-.63,1.13-.95c.29-.42.48-.87.56-1.35.11-.45.16-1.48.16-3.1s-.05-2.69-.16-3.14c-.08-.5-.26-.95-.56-1.35-.27-.32-.64-.64-1.13-.95s-1.09-.48-1.81-.48c-.77,0-1.39.16-1.87.48-.48.32-.85.64-1.11.95-.13.21-.25.43-.36.65-.11.23-.19.46-.24.7-.08.56-.12,1.6-.12,3.14Z"/>
      <path class="st1" d="M678.06,957.04c0-.82.28-1.53.83-2.14.64-.58,1.32-.87,2.06-.87.4,0,.77.08,1.13.24.36.16.68.37.97.64.56.63.83,1.35.83,2.14s-.28,1.51-.83,2.06c-.58.61-1.28.91-2.1.91-.87,0-1.56-.3-2.06-.91h.04c-.58-.58-.87-1.27-.87-2.06Z"/>
      <path class="st1" d="M698.67,961.37c.05-.13.16-.14.32-.04,1,.85,2.17,1.52,3.49,2,1.32.49,2.73.74,4.21.74,1.64,0,2.95-.34,3.93-1.03.9-.64,1.35-1.51,1.35-2.62,0-2.04-1.14-3.21-3.41-3.53-.63-.05-1.23-.12-1.79-.2s-1.19-.17-1.91-.28c-2.49-.32-4.37-1.22-5.64-2.7-1.3-1.53-1.95-3.32-1.95-5.36,0-2.46.82-4.46,2.46-6,1.64-1.56,3.92-2.34,6.83-2.34,1.75,0,3.39.28,4.92.83s2.95,1.26,4.25,2.1c.11.08.12.19.04.32l-2.34,3.49c-.11.11-.21.12-.32.04-1.01-.64-2.08-1.14-3.22-1.53-1.14-.38-2.32-.58-3.53-.58s-2.32.32-3.14.95c-.85.61-1.27,1.54-1.27,2.78,0,.77.29,1.46.87,2.06.58.66,1.55,1.09,2.9,1.27.37.08.81.15,1.31.22s1.1.14,1.79.22c2.65.32,4.6,1.3,5.88,2.94,1.3,1.56,1.95,3.32,1.95,5.28,0,2.65-.91,4.7-2.74,6.15-1.83,1.43-4.25,2.14-7.26,2.14-4.26,0-7.85-1.28-10.76-3.85-.13-.08-.15-.2-.04-.36l2.82-3.14Z"/>
      <path class="st1" d="M732.33,968.55c-.16,0-.24-.07-.24-.2v-1.11c-.34.48-.81.82-1.39,1.03-.4.16-.87.28-1.41.38-.54.09-1.13.14-1.77.14-2.2-.03-3.89-.63-5.08-1.83v.04c-1.27-1.14-1.91-2.62-1.91-4.45,0-1.69.54-3.12,1.63-4.29,1.11-1.14,2.71-1.73,4.8-1.79h5.12v-1.83c0-1.61-1.23-2.38-3.69-2.3-.93,0-1.67.09-2.22.28h.04c-.56.26-.97.63-1.23,1.11-.08.16-.2.19-.36.08l-3.02-2.38c-.13-.11-.15-.21-.04-.32,1.51-2.04,3.72-3.02,6.63-2.94,2.41-.03,4.37.45,5.88,1.43,1.48,1.03,2.25,2.78,2.3,5.24v13.5c0,.13-.08.2-.24.2h-3.81ZM732.09,960.21h-4.41c-2.06.05-3.1.77-3.1,2.14,0,.58.26,1.1.79,1.55.5.48,1.38.71,2.62.71,1.59.03,2.69-.16,3.29-.56h-.04c.56-.34.83-1.22.83-2.62v-1.23Z"/>
      <path class="st1" d="M742.53,968.47c-.16,0-.24-.07-.24-.2v-16.4h-1.75c-.16,0-.24-.08-.24-.24v-3.02c0-.16.08-.24.24-.24h1.75v-2.38c0-.93.14-1.75.42-2.46.28-.71.67-1.3,1.17-1.75,1.11-.9,2.44-1.35,3.97-1.35h2.58c.16,0,.24.08.24.24v3.69c0,.16-.08.24-.24.24h-2.22c-1.01,0-1.51.46-1.51,1.39v2.38h3.73c.16,0,.24.08.24.24v3.02c0,.16-.08.24-.24.24h-3.73v16.4c0,.13-.08.2-.24.2h-3.93Z"/>
      <path class="st1" d="M769.33,959.94c0,.16-.08.24-.24.24h-11.99c.05,1.46.46,2.53,1.23,3.21.79.77,1.87,1.15,3.22,1.15,1.56,0,2.95-.61,4.17-1.83.08-.08.18-.08.32,0l2.86,2.46c.11.05.11.16,0,.32-1.01,1.17-2.13,1.99-3.38,2.48-1.24.49-2.54.73-3.89.73-2.12,0-4.12-.66-5.99-1.99-1.96-1.35-2.94-4.09-2.94-8.22,0-3.89.9-6.59,2.7-8.1,1.77-1.51,3.65-2.26,5.64-2.26,2.2,0,4.13.77,5.8,2.3,1.67,1.56,2.5,3.64,2.5,6.23v3.26ZM764.92,956.44c-.11-1.35-.51-2.37-1.21-3.06-.7-.69-1.59-1.03-2.68-1.03-1.14,0-2.06.36-2.78,1.07s-1.07,1.69-1.15,3.02h7.82Z"/>
      <path class="st1" d="M774.73,968.47c-.16,0-.24-.07-.24-.2v-19.65c0-.16.08-.24.24-.24h3.97c.13,0,.2.08.2.24v1.59c1.27-1.38,2.92-2.06,4.96-2.06,1.51,0,2.92.52,4.25,1.55.13.08.15.2.04.36l-2.86,3.41c-.08.13-.17.15-.28.04-.85-.64-1.68-.95-2.5-.95-.93,0-1.76.32-2.5.95-.74.61-1.11,1.59-1.11,2.94v11.83c0,.13-.07.2-.2.2h-3.97Z"/>
      <path class="st1" d="M799.11,968.47c-.18,0-.25-.11-.2-.32l10.16-27.79c0-.11.07-.16.2-.16h3.45c.11,0,.18.05.24.16l10.12,27.79c.05.21-.01.32-.2.32h-4.45c-.08,0-.15-.05-.2-.16l-2.06-6.11h-10.24c-.37,1.03-.73,2.05-1.07,3.06-.34,1.01-.7,2.02-1.07,3.06-.05.11-.13.16-.24.16h-4.45ZM814.75,958.03c-.03-.18-.09-.37-.2-.56-.21-.63-.41-1.22-.6-1.77-.19-.54-.34-1.01-.48-1.41-.11-.26-.2-.52-.28-.75-.08-.24-.16-.48-.24-.71-.05-.21-.12-.41-.2-.6-.08-.18-.15-.36-.2-.52-.13-.37-.25-.75-.36-1.13s-.22-.77-.36-1.17c-.05-.19-.12-.38-.2-.6-.08-.21-.16-.45-.24-.71-.05-.24-.1-.4-.14-.5s-.11-.31-.22-.66c-.16.45-.3.85-.42,1.21s-.23.7-.34,1.01c-.03.11-.07.24-.12.4-.05.21-.12.41-.2.6-.08.19-.15.38-.2.6-.05.21-.12.41-.2.6-.08.19-.15.37-.2.56-.13.4-.26.81-.4,1.25-.13.44-.28.88-.44,1.33-.19.45-.36.95-.54,1.49-.17.54-.4,1.22-.7,2.04h7.42Z"/>
      <path class="st1" d="M839.16,968.47c-.16,0-.24-.07-.24-.2v-1.47c-1.32,1.27-2.94,1.91-4.84,1.91-1.27,0-2.35-.24-3.24-.73-.89-.49-1.62-1.12-2.2-1.89h.04c-.32-.37-.57-.77-.75-1.19-.19-.42-.33-.89-.44-1.39-.21-1-.32-2.7-.32-5.08s.11-4.04.32-5.04c.11-.48.26-.93.46-1.37.2-.44.44-.84.73-1.21h-.04c.58-.77,1.32-1.4,2.2-1.91.89-.5,1.96-.75,3.24-.75.98,0,1.86.19,2.64.58.78.38,1.52.88,2.2,1.49v-9.53c0-.16.08-.24.24-.24h3.97c.16,0,.24.08.24.24v27.59c0,.13-.08.2-.24.2h-3.97ZM835.31,952.55c-1.75,0-2.81.58-3.18,1.75-.16.63-.28,1.3-.38,1.99s-.14,1.4-.14,2.14.05,1.46.14,2.16c.09.7.22,1.37.38,2,.37,1.17,1.43,1.75,3.18,1.75s2.74-.61,3.06-1.83c.21-.69.36-1.37.44-2.04.08-.67.12-1.36.12-2.04s-.04-1.37-.12-2.04c-.08-.67-.23-1.34-.44-2-.32-1.22-1.34-1.83-3.06-1.83Z"/>
      <path class="st1" d="M853.42,968.47c-.13,0-.2-.04-.2-.12l-7.19-19.69c-.05-.05-.05-.11,0-.18.05-.07.12-.1.2-.1h4.17c.13,0,.2.05.2.16l4.45,13.26c.74-2.25,1.48-4.47,2.22-6.65s1.48-4.39,2.22-6.61c.05-.11.12-.16.2-.16h4.21c.08,0,.15.03.2.1.05.07.05.13,0,.18l-7.19,19.69c-.05.08-.13.12-.24.12h-3.25Z"/>
      <path class="st1" d="M882.99,959.94c0,.16-.08.24-.24.24h-11.99c.05,1.46.46,2.53,1.23,3.21.79.77,1.87,1.15,3.22,1.15,1.56,0,2.95-.61,4.17-1.83.08-.08.18-.08.32,0l2.86,2.46c.11.05.11.16,0,.32-1.01,1.17-2.13,1.99-3.38,2.48-1.24.49-2.54.73-3.89.73-2.12,0-4.12-.66-5.99-1.99-1.96-1.35-2.94-4.09-2.94-8.22,0-3.89.9-6.59,2.7-8.1,1.77-1.51,3.65-2.26,5.64-2.26,2.2,0,4.13.77,5.8,2.3,1.67,1.56,2.5,3.64,2.5,6.23v3.26ZM878.58,956.44c-.11-1.35-.51-2.37-1.21-3.06-.7-.69-1.59-1.03-2.68-1.03-1.14,0-2.06.36-2.78,1.07s-1.07,1.69-1.15,3.02h7.82Z"/>
      <path class="st1" d="M888.39,968.47c-.16,0-.24-.07-.24-.2v-19.65c0-.16.08-.24.24-.24h3.97c.16,0,.24.08.24.24v1.59c1.22-1.38,2.87-2.06,4.96-2.06,1.54,0,3.06.6,4.57,1.79,1.48,1.19,2.22,2.95,2.22,5.28v13.06c0,.13-.08.2-.24.2h-3.97c-.16,0-.24-.07-.24-.2v-11.71c0-1.3-.33-2.29-.99-2.98-.74-.69-1.61-1.03-2.62-1.03-1.08,0-1.97.34-2.66,1.03-.69.74-1.03,1.73-1.03,2.98v11.71c0,.13-.08.2-.24.2h-3.97Z"/>
      <path class="st1" d="M910.9,968.51c-.16,0-.24-.08-.24-.24v-16.4h-1.75c-.16,0-.24-.08-.24-.24v-3.02c0-.16.08-.24.24-.24h1.75v-2.98l4.01-4.25c.08-.08.17-.11.26-.08s.14.09.14.2v7.11h2.66c.13,0,.2.08.2.24v3.02c0,.16-.07.24-.2.24h-2.66v16.4c0,.16-.08.24-.24.24h-3.93Z"/>
      <path class="st1" d="M922.49,948.62c0-.16.08-.24.24-.24h3.97c.16,0,.24.08.24.24v11.71c0,1.3.34,2.29,1.03,2.98.69.69,1.57,1.03,2.66,1.03,1.01,0,1.88-.34,2.62-1.03.66-.66.99-1.65.99-2.98v-11.71c0-.16.08-.24.24-.24h3.97c.16,0,.24.08.24.24v19.65c0,.13-.08.2-.24.2h-3.97c-.16,0-.24-.07-.24-.2v-1.55c-1.22,1.32-2.86,1.99-4.92,1.99-1.62,0-3.15-.6-4.61-1.79-1.48-1.19-2.22-2.94-2.22-5.24v-13.06Z"/>
      <path class="st1" d="M945.04,968.47c-.16,0-.24-.07-.24-.2v-19.65c0-.16.08-.24.24-.24h3.97c.13,0,.2.08.2.24v1.59c1.27-1.38,2.92-2.06,4.96-2.06,1.51,0,2.92.52,4.25,1.55.13.08.15.2.04.36l-2.86,3.41c-.08.13-.17.15-.28.04-.85-.64-1.68-.95-2.5-.95-.93,0-1.76.32-2.5.95-.74.61-1.11,1.59-1.11,2.94v11.83c0,.13-.07.2-.2.2h-3.97Z"/>
      <path class="st1" d="M976.84,959.94c0,.16-.08.24-.24.24h-11.99c.05,1.46.46,2.53,1.23,3.21.79.77,1.87,1.15,3.22,1.15,1.56,0,2.95-.61,4.17-1.83.08-.08.18-.08.32,0l2.86,2.46c.11.05.11.16,0,.32-1.01,1.17-2.13,1.99-3.38,2.48-1.24.49-2.54.73-3.89.73-2.12,0-4.12-.66-5.99-1.99-1.96-1.35-2.94-4.09-2.94-8.22,0-3.89.9-6.59,2.7-8.1,1.77-1.51,3.65-2.26,5.64-2.26,2.2,0,4.13.77,5.8,2.3,1.67,1.56,2.5,3.64,2.5,6.23v3.26ZM972.43,956.44c-.11-1.35-.51-2.37-1.21-3.06-.7-.69-1.59-1.03-2.68-1.03-1.14,0-2.06.36-2.78,1.07s-1.07,1.69-1.15,3.02h7.82Z"/>
      <path class="st1" d="M982.68,962.12c.11-.11.2-.12.28-.04,1.67,1.64,3.69,2.46,6.07,2.46,1.08,0,1.97-.2,2.66-.59.66-.42.99-.98.99-1.67,0-1-.74-1.57-2.22-1.71l-3.49-.36c-1.67-.13-3.06-.69-4.17-1.67-1.11-.95-1.67-2.33-1.67-4.13,0-2.04.73-3.6,2.18-4.68,1.4-1.06,3.19-1.59,5.36-1.59,1.75,0,3.24.25,4.49.73,1.24.49,2.37,1.16,3.37,2,.13.11.15.21.04.32l-2.46,2.86c-.11.11-.21.12-.32.04-.77-.53-1.55-.95-2.36-1.27-.81-.32-1.73-.48-2.76-.48-1.19,0-2.02.2-2.5.6-.42.42-.63.93-.63,1.51,0,.4.16.75.48,1.07.13.13.36.25.7.36.33.11.73.17,1.21.2.53.05,1.07.09,1.63.12.56.03,1.1.07,1.63.12,2.06.16,3.57.82,4.53,1.99.93,1.17,1.39,2.54,1.39,4.13,0,2.01-.82,3.57-2.46,4.68-1.67,1.06-3.64,1.59-5.92,1.59-3.31,0-6.25-1.18-8.81-3.53-.11-.13-.11-.25,0-.36l2.78-2.7Z"/>
    </g>
  </g>
</svg>